<svg id="Property_Graph" data-name="Property Graph" xmlns="http://www.w3.org/2000/svg" viewBox="0 0 600 289"><defs><style>.cls-1{fill:#f8fbfe;stroke:#d2d5da;}.cls-1,.cls-14,.cls-4,.cls-8,.cls-9{stroke-miterlimit:10;}.cls-1,.cls-2,.cls-3{stroke-width:1.5px;}.cls-2,.cls-3,.cls-4,.cls-8,.cls-9{fill:none;}.cls-2{stroke:#72c59a;}.cls-2,.cls-3{stroke-linecap:round;stroke-linejoin:round;}.cls-3{stroke:#71b9e6;}.cls-14,.cls-4{stroke:#9599a1;}.cls-15,.cls-5{fill:#9599a1;}.cls-6{fill:#231f20;}.cls-7{fill:#5da5d7;}.cls-8{stroke:#f3756f;}.cls-8,.cls-9{stroke-width:0.75px;}.cls-9{stroke:#ebb838;}.cls-10{font-size:12px;fill:#ebb838;}.cls-10,.cls-13{font-family:OpenSans-Semibold, Open Sans;font-weight:700;}.cls-11{fill:#72c59a;}.cls-12{fill:#71b9e6;}.cls-13{font-size:13px;fill:#f3756f;}.cls-14{fill:#fff;}.cls-15{font-size:16px;font-family:OpenSans, Open Sans;}</style></defs><title>Property-Graph-Cypher</title><circle class="cls-1" cx="149.72" cy="77.36" r="65.25"/><path class="cls-2" d="M160.16,77.53c0,5.9,10.85,9.44,14.39,1.18-10.61,0-2.36-36.56-25.95-24.77C125,42.14,133.27,78.7,122.66,78.7c3.54,8.26,14.41,4.72,14.41-1.18"/><path class="cls-2" d="M148.61,88.14c3.54-1.18,10.61-4.72,11.79-11.79,3.54,0,3.54-7.08,0-7.08l-1.18-4.72c-9.44,0-9.44-3.54-10.61-4.72-1.18,1.18-1.18,4.72-10.61,4.72l-1.18,4.72c-3.54,0-3.54,7.08,0,7.08C138,83.42,145.07,87,148.61,88.14Z"/><path class="cls-2" d="M154.43,85.18c10.61,4.72,21.3,7.68,21.3,15.93v3.55H121.48v-3.55c0-8.26,10.68-11.22,21.3-15.93"/><path class="cls-2" d="M133.27,89.32c0,7.08,15.33,8.26,15.33,15.33"/><path class="cls-2" d="M163.94,89.32c0,7.08-15.33,8.26-15.33,15.33"/><path class="cls-2" d="M141.53,70.45c0-1.3,1.06-1.18,2.36-1.18s2.36-.12,2.36,1.18"/><path class="cls-2" d="M151,70.45c0-1.3,1.06-1.18,2.36-1.18s2.36-.12,2.36,1.18"/><circle class="cls-1" cx="450" cy="77.36" r="65.25"/><path class="cls-3" d="M450,85.89c3.59,0,12-4.78,12-12,3.59,0,3.59-7.17,0-7.17l-1.2-6c-9.56,0-9.56-3.59-10.76-4.78-1.2,1.2-1.2,4.78-10.76,4.78l-1.2,6c-3.59,0-3.59,7.17,0,7.17C438,81.11,446.41,85.89,450,85.89Z"/><path class="cls-3" d="M464.29,68.48l1.25-8.89s1.2-12-15.54-12-15.54,12-15.54,12l1.27,8.84"/><path class="cls-3" d="M443.47,83.22l-14.76,4.48a9.56,9.56,0,0,0-6.21,9v6h55v-6a9.56,9.56,0,0,0-6.21-9l-14.76-4.48"/><path class="cls-3" d="M442.83,69.15c0-1.32,1.07-1.2,2.39-1.2s2.39-.13,2.39,1.2"/><path class="cls-3" d="M452.39,69.15c0-1.32,1.07-1.2,2.39-1.2s2.39-.13,2.39,1.2"/><g id="Relationship"><line class="cls-4" x1="213.88" y1="62.14" x2="379.02" y2="64.09"/><polygon class="cls-5" points="377.5 69.06 386.19 64.18 377.62 59.09 377.5 69.06"/></g><path class="cls-6" d="M50.28,201.38h2.11l2,5.92,2-5.92h2.12V213H57.09V202.73L55,208.85h-1.2l-2.09-6.12V213H50.28Z"/><path class="cls-6" d="M63.49,201.34h1.91L69,213H67.34l-.86-3H62.4l-.84,3H59.92Zm1,1.39-1.66,6h3.33Z"/><path class="cls-6" d="M69.63,201.34h8.9v1.33H74.88V213H73.3V202.66H69.63Z"/><path class="cls-6" d="M87.28,212.59a5.32,5.32,0,0,1-2.58.64,4.16,4.16,0,0,1-3.48-1.59,8.62,8.62,0,0,1,0-8.92,4.15,4.15,0,0,1,3.47-1.6,5.32,5.32,0,0,1,2.58.64v1.62a4.39,4.39,0,0,0-1.24-.73,3.76,3.76,0,0,0-1.34-.25,2.56,2.56,0,0,0-2.3,1.19,8.76,8.76,0,0,0,0,7.16,2.56,2.56,0,0,0,2.3,1.19,3.77,3.77,0,0,0,1.35-.25,4.29,4.29,0,0,0,1.23-.73Z"/><path class="cls-6" d="M89.6,201.34h1.59v4.47h4.32v-4.47h1.59V213H95.51v-5.87H91.19V213H89.6Z"/><path class="cls-6" d="M104.84,200.08a15.71,15.71,0,0,0-1.55,3.55,12.67,12.67,0,0,0,0,7.13,16,16,0,0,0,1.55,3.57h-1.25a16.25,16.25,0,0,1-1.76-3.62,10.94,10.94,0,0,1,0-7,15.94,15.94,0,0,1,1.76-3.61Z"/><path class="cls-7" d="M111.15,204.26h2.44v2.82h-2.44Zm0,5.9h2.44V213h-2.44Z"/><path class="cls-7" d="M119,201.34h3.41a4.36,4.36,0,0,1,3,.89,3.87,3.87,0,0,1,0,5.21,4.37,4.37,0,0,1-3,.88h-1.83V213H119Zm1.58,1.3V207h1.83a2.39,2.39,0,0,0,1.71-.58,2.44,2.44,0,0,0,0-3.23,2.4,2.4,0,0,0-1.71-.57Z"/><path class="cls-7" d="M135.81,207.91v.7h-6.23v0a3.46,3.46,0,0,0,.68,2.57,2.77,2.77,0,0,0,2.11.78,5.14,5.14,0,0,0,1.44-.22,8.8,8.8,0,0,0,1.6-.66v1.43a9.76,9.76,0,0,1-1.58.5,6.82,6.82,0,0,1-1.47.17,4.16,4.16,0,0,1-3.19-1.22,4.73,4.73,0,0,1-1.15-3.37,4.81,4.81,0,0,1,1.13-3.34,3.84,3.84,0,0,1,3-1.25,3.28,3.28,0,0,1,2.64,1.13A4.35,4.35,0,0,1,135.81,207.91Zm-1.44-.42a2.79,2.79,0,0,0-.66-1.57,2,2,0,0,0-1.63-.66,2.29,2.29,0,0,0-1.71.69,2.42,2.42,0,0,0-.73,1.55Z"/><path class="cls-7" d="M145.72,206.05a3.27,3.27,0,0,0-.94-.52,3.2,3.2,0,0,0-1-.16,2.54,2.54,0,0,0-2.05.84,3.69,3.69,0,0,0-.71,2.44V213h-1.45v-8.75H141V206a2.91,2.91,0,0,1,1.11-1.43,3.12,3.12,0,0,1,1.77-.5,3.56,3.56,0,0,1,1,.13,3.18,3.18,0,0,1,.88.41Z"/><path class="cls-7" d="M153.93,204.55V206a5.51,5.51,0,0,0-1.24-.54,4.58,4.58,0,0,0-1.27-.18,2.68,2.68,0,0,0-1.46.32,1.08,1.08,0,0,0-.48,1,1.05,1.05,0,0,0,.36.88,4.91,4.91,0,0,0,1.79.56l.58.11a2.82,2.82,0,0,1,1.62.81,2.27,2.27,0,0,1,.55,1.59,2.44,2.44,0,0,1-.92,2,4,4,0,0,1-2.56.73,7.22,7.22,0,0,1-1.36-.14,12.29,12.29,0,0,1-1.54-.41V211.2a8.26,8.26,0,0,0,1.54.62,5.14,5.14,0,0,0,1.39.21,2.45,2.45,0,0,0,1.48-.39,1.27,1.27,0,0,0,.52-1.08q0-1-1.91-1.38l-.06,0-.54-.11a3.44,3.44,0,0,1-1.81-.82,2.12,2.12,0,0,1-.57-1.57,2.35,2.35,0,0,1,.85-1.94,3.79,3.79,0,0,1,2.43-.68,6.92,6.92,0,0,1,1.35.13A6.83,6.83,0,0,1,153.93,204.55Z"/><path class="cls-7" d="M160.77,204a3.39,3.39,0,0,1,2.79,1.18,6.54,6.54,0,0,1,0,6.83,3.89,3.89,0,0,1-5.57,0,6.55,6.55,0,0,1,0-6.83A3.38,3.38,0,0,1,160.77,204Zm0,1.22a1.86,1.86,0,0,0-1.66.85,5.93,5.93,0,0,0,0,5,2,2,0,0,0,3.32,0,5.93,5.93,0,0,0,0-5A1.87,1.87,0,0,0,160.77,205.26Z"/><path class="cls-7" d="M173.8,207.58V213h-1.45v-5.42a2.92,2.92,0,0,0-.41-1.73,1.51,1.51,0,0,0-1.3-.55,1.83,1.83,0,0,0-1.55.71,3.34,3.34,0,0,0-.54,2.05V213h-1.44v-8.75h1.44v1.31a2.71,2.71,0,0,1,1-1.14,3,3,0,0,1,1.55-.39,2.34,2.34,0,0,1,2,.88A4.41,4.41,0,0,1,173.8,207.58Z"/><path class="cls-7" d="M183.29,213.4v1.13h-.5a4.15,4.15,0,0,1-2.61-.58,3,3,0,0,1-.66-2.3v-1.56a2.32,2.32,0,0,0-.48-1.47,1.77,1.77,0,0,0-1.49-.62h-1v-1.12h1a1.91,1.91,0,0,0,1.54-.52,2.36,2.36,0,0,0,.43-1.54v-2a3,3,0,0,1,.66-2.3,4.17,4.17,0,0,1,2.61-.57h.5V201h-.55a2.08,2.08,0,0,0-1.43.34,2.18,2.18,0,0,0-.33,1.45v2.09a2.42,2.42,0,0,1-.54,1.85,4.22,4.22,0,0,1-2.1.68,3.85,3.85,0,0,1,2.08.69A2.44,2.44,0,0,1,181,210v1.63a2.18,2.18,0,0,0,.33,1.45,2.1,2.1,0,0,0,1.43.34Z"/><path class="cls-7" d="M202.7,207.58V213h-1.45v-5.42a2.91,2.91,0,0,0-.41-1.73,1.51,1.51,0,0,0-1.3-.55A1.83,1.83,0,0,0,198,206a3.34,3.34,0,0,0-.54,2.05V213H196v-8.75h1.44v1.31a2.71,2.71,0,0,1,1-1.14A3,3,0,0,1,200,204a2.34,2.34,0,0,1,2,.88A4.41,4.41,0,0,1,202.7,207.58Z"/><path class="cls-7" d="M212.4,208v5H211v-1.3a3,3,0,0,1-1.16,1.15,3.59,3.59,0,0,1-1.7.37,3,3,0,0,1-2.13-.75,3,3,0,0,1,.18-4.24,4.65,4.65,0,0,1,2.88-.76H211v-.23a2,2,0,0,0-.53-1.52,2.45,2.45,0,0,0-1.67-.47,5.47,5.47,0,0,0-1.48.21,6.48,6.48,0,0,0-1.46.62v-1.44a10,10,0,0,1,1.53-.46,6.94,6.94,0,0,1,1.42-.15,4.82,4.82,0,0,1,1.86.32,2.92,2.92,0,0,1,1.25,1,2.42,2.42,0,0,1,.42,1A8.78,8.78,0,0,1,212.4,208Zm-2.79.59h-.48a3.34,3.34,0,0,0-1.89.44,1.5,1.5,0,0,0-.64,1.32,1.58,1.58,0,0,0,.48,1.23,1.88,1.88,0,0,0,1.32.44,2.29,2.29,0,0,0,1.87-.82,3.51,3.51,0,0,0,.69-2.28v-.32Z"/><path class="cls-7" d="M219,205.14a2,2,0,0,1,.68-.83,1.76,1.76,0,0,1,1-.27,1.55,1.55,0,0,1,1.49.82,7.36,7.36,0,0,1,.43,3.07V213h-1.31v-5a7.39,7.39,0,0,0-.21-2.3.76.76,0,0,0-.75-.45.86.86,0,0,0-.86.48,6.7,6.7,0,0,0-.23,2.27v5H218v-5a6.87,6.87,0,0,0-.22-2.31.82.82,0,0,0-.8-.44.8.8,0,0,0-.79.48,6.91,6.91,0,0,0-.22,2.27v5h-1.3v-8.75h1.3V205a1.92,1.92,0,0,1,.64-.71,1.6,1.6,0,0,1,.88-.25,1.69,1.69,0,0,1,1,.27A1.75,1.75,0,0,1,219,205.14Z"/><path class="cls-7" d="M232.14,207.91v.7h-6.23v0a3.46,3.46,0,0,0,.68,2.57,2.77,2.77,0,0,0,2.11.78,5.14,5.14,0,0,0,1.44-.22,8.79,8.79,0,0,0,1.6-.66v1.43a9.76,9.76,0,0,1-1.58.5,6.82,6.82,0,0,1-1.47.17A4.16,4.16,0,0,1,225.5,212a4.73,4.73,0,0,1-1.15-3.37,4.81,4.81,0,0,1,1.13-3.34,3.84,3.84,0,0,1,3-1.25,3.28,3.28,0,0,1,2.64,1.13A4.35,4.35,0,0,1,232.14,207.91Zm-1.44-.42a2.78,2.78,0,0,0-.66-1.57,2,2,0,0,0-1.63-.66,2.29,2.29,0,0,0-1.71.69,2.42,2.42,0,0,0-.73,1.55Z"/><path class="cls-7" d="M236.38,204.26h2.44v2.82h-2.44Zm0,5.9h2.44V213h-2.44Z"/><path class="cls-7" d="M246.29,205.45h-2v-1.62l1.55-3h1.2l-.77,3Zm3.59,0h-2v-1.62l1.53-3h1.2l-.77,3Z"/><path class="cls-7" d="M256.15,201.34h1.91L261.63,213H260l-.86-3h-4.09l-.84,3h-1.63Zm1,1.39-1.66,6h3.33Z"/><path class="cls-7" d="M270.13,207.58V213h-1.45v-5.42a2.91,2.91,0,0,0-.41-1.73,1.51,1.51,0,0,0-1.3-.55,1.83,1.83,0,0,0-1.55.71,3.34,3.34,0,0,0-.54,2.05V213h-1.44v-8.75h1.44v1.31a2.71,2.71,0,0,1,1-1.14,3,3,0,0,1,1.55-.39,2.34,2.34,0,0,1,2,.88A4.41,4.41,0,0,1,270.13,207.58Z"/><path class="cls-7" d="M279.77,207.58V213h-1.45v-5.42a2.91,2.91,0,0,0-.41-1.73,1.51,1.51,0,0,0-1.3-.55,1.83,1.83,0,0,0-1.55.71,3.34,3.34,0,0,0-.54,2.05V213h-1.44v-8.75h1.44v1.31a2.71,2.71,0,0,1,1-1.14,3,3,0,0,1,1.55-.39,2.34,2.34,0,0,1,2,.88A4.41,4.41,0,0,1,279.77,207.58Z"/><path class="cls-7" d="M283.6,200.84h2v1.61l-1.53,3h-1.2l.77-3Zm3.59,0h2v1.61l-1.54,3h-1.2l.77-3Z"/><path class="cls-7" d="M293.08,213.4a2.1,2.1,0,0,0,1.43-.34,2.18,2.18,0,0,0,.33-1.45V210a2.44,2.44,0,0,1,.56-1.85,3.85,3.85,0,0,1,2.08-.69,4.21,4.21,0,0,1-2.1-.68,2.42,2.42,0,0,1-.54-1.85v-2.09a2.18,2.18,0,0,0-.33-1.45,2.08,2.08,0,0,0-1.43-.34h-.55v-1.12h.5a4.17,4.17,0,0,1,2.61.57,3,3,0,0,1,.66,2.3v2a2.36,2.36,0,0,0,.43,1.54,1.91,1.91,0,0,0,1.54.52h1V208h-1a1.77,1.77,0,0,0-1.49.62,2.32,2.32,0,0,0-.48,1.47v1.56a3,3,0,0,1-.66,2.3,4.15,4.15,0,0,1-2.61.58h-.5V213.4Z"/><path class="cls-6" d="M303.17,200.08h1.25a16,16,0,0,1,1.76,3.61,11,11,0,0,1,0,7,16,16,0,0,1-1.76,3.61h-1.25a16.32,16.32,0,0,0,1.55-3.59,12.58,12.58,0,0,0,0-7.1A15.85,15.85,0,0,0,303.17,200.08Z"/><path class="cls-6" d="M310.88,207.34h8.28v1.32h-8.28Z"/><path class="cls-6" d="M324.12,200.06h3.31v1.12h-1.87v12h1.88v1.12h-3.31Z"/><path class="cls-6" d="M332.7,204.26h2.44v2.82H332.7Zm0,5.9h2.44V213H332.7Z"/><path class="cls-6" d="M339.27,201.38h2.11l2,5.92,2-5.92h2.12V213h-1.46V202.73L344,208.85h-1.2l-2.09-6.12V213h-1.45Z"/><path class="cls-6" d="M352.48,201.34h1.91L358,213h-1.63l-.86-3h-4.09l-.84,3h-1.63Zm1,1.39-1.66,6h3.33Z"/><path class="cls-6" d="M364.19,207.49a2.21,2.21,0,0,1,1,.59,7.25,7.25,0,0,1,1.07,1.73l1.59,3.19h-1.7l-1.39-2.95a4.65,4.65,0,0,0-1.08-1.62,2,2,0,0,0-1.25-.36H361V213h-1.59V201.34h3.25a4.44,4.44,0,0,1,2.95.87,3.1,3.1,0,0,1,1,2.51,2.79,2.79,0,0,1-.63,1.89A2.75,2.75,0,0,1,364.19,207.49ZM361,202.63v4.14h1.73a2.43,2.43,0,0,0,1.69-.51,2,2,0,0,0,.55-1.55,2,2,0,0,0-.59-1.54,2.47,2.47,0,0,0-1.71-.54Z"/><path class="cls-6" d="M373.82,207.49a2.21,2.21,0,0,1,1,.59,7.25,7.25,0,0,1,1.07,1.73l1.59,3.19h-1.7l-1.39-2.95a4.65,4.65,0,0,0-1.08-1.62,2,2,0,0,0-1.25-.36h-1.51V213H369V201.34h3.25a4.44,4.44,0,0,1,2.95.87,3.1,3.1,0,0,1,1,2.51,2.79,2.79,0,0,1-.63,1.89A2.75,2.75,0,0,1,373.82,207.49Zm-3.23-4.86v4.14h1.73a2.43,2.43,0,0,0,1.69-.51,2,2,0,0,0,.55-1.55,2,2,0,0,0-.59-1.54,2.47,2.47,0,0,0-1.71-.54Z"/><path class="cls-6" d="M379.09,201.34h6.48v1.33h-2.45v9h2.45V213h-6.48v-1.33h2.45v-9h-2.45Z"/><path class="cls-6" d="M388.69,201.34h6.92v1.33h-5.34v3.14h5.11v1.33h-5.11v4.54h5.49V213h-7.07Z"/><path class="cls-6" d="M400.22,201.34a5,5,0,0,1,3.94,1.42,8.32,8.32,0,0,1,0,8.82,5,5,0,0,1-3.94,1.42h-2.37V201.34Zm0,10.37a3.39,3.39,0,0,0,2.78-1,5.85,5.85,0,0,0,.79-3.54,5.93,5.93,0,0,0-.79-3.57,3.39,3.39,0,0,0-2.79-1h-.75v9.07Z"/><path class="cls-6" d="M416,214.48v1.33h-9.56v-1.33Z"/><path class="cls-6" d="M416.41,201.34h8.9v1.33h-3.65V213h-1.59V202.66h-3.66Z"/><path class="cls-6" d="M434.4,207.18a8.53,8.53,0,0,1-1,4.55,3.64,3.64,0,0,1-5.88,0,11.25,11.25,0,0,1,0-9.11,3.63,3.63,0,0,1,5.88,0A8.55,8.55,0,0,1,434.4,207.18Zm-1.65,0a9.19,9.19,0,0,0-.53-3.67,1.9,1.9,0,0,0-3.45,0,13,13,0,0,0,0,7.34,1.91,1.91,0,0,0,3.45,0A9.15,9.15,0,0,0,432.75,207.18Z"/><path class="cls-6" d="M440.94,200.06v14.27h-3.31v-1.12h1.88v-12h-1.87v-1.12Z"/><path class="cls-6" d="M445.74,207.34H454v1.32h-8.28Z"/><path class="cls-6" d="M455.27,205.49v-1.42l8.26,3.27v1.3l-8.26,3.27v-1.43l6.64-2.48Z"/><path class="cls-6" d="M470.89,200.08a15.73,15.73,0,0,0-1.55,3.55,12.67,12.67,0,0,0,0,7.13,16,16,0,0,0,1.55,3.57h-1.25a16.3,16.3,0,0,1-1.76-3.62,10.94,10.94,0,0,1,0-7,16,16,0,0,1,1.76-3.61Z"/><path class="cls-7" d="M481.45,204.55V206a5.49,5.49,0,0,0-1.24-.54,4.57,4.57,0,0,0-1.27-.18,2.68,2.68,0,0,0-1.46.32,1.08,1.08,0,0,0-.48,1,1.06,1.06,0,0,0,.36.88,4.91,4.91,0,0,0,1.79.56l.58.11a2.82,2.82,0,0,1,1.62.81,2.27,2.27,0,0,1,.55,1.59,2.44,2.44,0,0,1-.92,2,4,4,0,0,1-2.56.73,7.22,7.22,0,0,1-1.36-.14,12.32,12.32,0,0,1-1.54-.41V211.2a8.27,8.27,0,0,0,1.54.62,5.14,5.14,0,0,0,1.39.21,2.45,2.45,0,0,0,1.48-.39,1.27,1.27,0,0,0,.52-1.08q0-1-1.91-1.38l-.06,0-.54-.11a3.44,3.44,0,0,1-1.81-.82,2.13,2.13,0,0,1-.57-1.57,2.35,2.35,0,0,1,.85-1.94,3.79,3.79,0,0,1,2.43-.68,6.92,6.92,0,0,1,1.35.13A6.82,6.82,0,0,1,481.45,204.55Z"/><path class="cls-7" d="M486.41,211.9v4.43H485V204.25h1.45v1.12a2.5,2.5,0,0,1,1-1,2.74,2.74,0,0,1,1.38-.34,2.92,2.92,0,0,1,2.49,1.23,5.63,5.63,0,0,1,.9,3.4,5.49,5.49,0,0,1-.91,3.35,2.93,2.93,0,0,1-2.48,1.21,2.77,2.77,0,0,1-1.39-.34A2.4,2.4,0,0,1,486.41,211.9Zm4.22-3.27a4.86,4.86,0,0,0-.53-2.52,1.73,1.73,0,0,0-1.57-.85,1.76,1.76,0,0,0-1.59.86,6.15,6.15,0,0,0,0,5,1.75,1.75,0,0,0,1.59.86,1.73,1.73,0,0,0,1.57-.85A4.86,4.86,0,0,0,490.63,208.63Z"/><path class="cls-7" d="M497.92,204a3.39,3.39,0,0,1,2.79,1.18,6.54,6.54,0,0,1,0,6.83,3.89,3.89,0,0,1-5.57,0,6.55,6.55,0,0,1,0-6.83A3.38,3.38,0,0,1,497.92,204Zm0,1.22a1.86,1.86,0,0,0-1.66.85,5.93,5.93,0,0,0,0,5,2,2,0,0,0,3.32,0,5.93,5.93,0,0,0,0-5A1.87,1.87,0,0,0,497.92,205.26Z"/><path class="cls-7" d="M504.27,209.69v-5.42h1.44v5.42a2.9,2.9,0,0,0,.42,1.73,1.51,1.51,0,0,0,1.29.55,1.83,1.83,0,0,0,1.55-.71,3.36,3.36,0,0,0,.54-2.05v-4.95H511V213h-1.45v-1.31a2.72,2.72,0,0,1-1,1.15,3,3,0,0,1-1.54.39,2.33,2.33,0,0,1-2-.88A4.43,4.43,0,0,1,504.27,209.69Z"/><path class="cls-7" d="M520,204.55V206a5.49,5.49,0,0,0-1.24-.54,4.57,4.57,0,0,0-1.27-.18,2.68,2.68,0,0,0-1.46.32,1.08,1.08,0,0,0-.48,1,1.06,1.06,0,0,0,.36.88,4.91,4.91,0,0,0,1.79.56l.58.11a2.82,2.82,0,0,1,1.62.81,2.27,2.27,0,0,1,.55,1.59,2.44,2.44,0,0,1-.92,2,4,4,0,0,1-2.56.73,7.22,7.22,0,0,1-1.36-.14,12.32,12.32,0,0,1-1.54-.41V211.2a8.27,8.27,0,0,0,1.54.62A5.14,5.14,0,0,0,517,212a2.45,2.45,0,0,0,1.48-.39,1.27,1.27,0,0,0,.52-1.08q0-1-1.91-1.38l-.06,0-.54-.11a3.44,3.44,0,0,1-1.81-.82,2.13,2.13,0,0,1-.57-1.57,2.35,2.35,0,0,1,.85-1.94,3.79,3.79,0,0,1,2.43-.68,6.92,6.92,0,0,1,1.35.13A6.82,6.82,0,0,1,520,204.55Z"/><path class="cls-7" d="M530.76,207.91v.7h-6.23v0a3.46,3.46,0,0,0,.68,2.57,2.77,2.77,0,0,0,2.11.78,5.14,5.14,0,0,0,1.44-.22,8.79,8.79,0,0,0,1.6-.66v1.43a9.76,9.76,0,0,1-1.58.5,6.82,6.82,0,0,1-1.47.17,4.16,4.16,0,0,1-3.19-1.22,4.73,4.73,0,0,1-1.15-3.37,4.81,4.81,0,0,1,1.13-3.34,3.84,3.84,0,0,1,3-1.25,3.28,3.28,0,0,1,2.64,1.13A4.35,4.35,0,0,1,530.76,207.91Zm-1.44-.42a2.78,2.78,0,0,0-.66-1.57,2,2,0,0,0-1.63-.66,2.29,2.29,0,0,0-1.71.69,2.42,2.42,0,0,0-.73,1.55Z"/><path class="cls-6" d="M534.36,200.08h1.25a16,16,0,0,1,1.76,3.61,11,11,0,0,1,0,7,16,16,0,0,1-1.76,3.61h-1.25a16.32,16.32,0,0,0,1.55-3.59,12.58,12.58,0,0,0,0-7.1A15.85,15.85,0,0,0,534.36,200.08Z"/><g id="Node-Relationship"><line class="cls-8" x1="50.32" y1="181.79" x2="297.03" y2="183.38"/><line class="cls-8" x1="324.47" y1="182.84" x2="534.44" y2="183.01"/><line class="cls-8" x1="150" y1="168" x2="150" y2="182.75"/><line class="cls-8" x1="450" y1="169" x2="450" y2="182.75"/></g><g id="Label-Prop-Var"><line class="cls-9" x1="142" y1="235" x2="142" y2="248"/><line class="cls-9" x1="240" y1="235" x2="240" y2="248"/><line class="cls-9" x1="504" y1="235" x2="504" y2="248"/><line class="cls-9" x1="107" y1="235" x2="174.5" y2="235"/><line class="cls-9" x1="195" y1="235" x2="295" y2="235"/><line class="cls-9" x1="470" y1="235" x2="537.5" y2="235"/><text class="cls-10" transform="translate(124 261.45)">LABEL</text><text class="cls-10" transform="translate(210 261.45)">PROPERTY</text><text class="cls-10" transform="translate(476 261.45)">VARIABLE</text></g><path class="cls-11" d="M138.43,123.5l-.83-2.72h-4.16l-.83,2.72H130L134,112h3l4,11.47ZM137,118.75q-1.15-3.7-1.29-4.18t-.21-.77q-.26,1-1.48,4.95Z"/><path class="cls-11" d="M152.61,123.5h-3.08l-5-8.64h-.07q.15,2.29.15,3.27v5.38h-2.16V112.08h3.05l5,8.55h.05q-.12-2.23-.12-3.15v-5.41h2.18Z"/><path class="cls-11" d="M165.62,123.5h-3.08l-5-8.64h-.07q.15,2.29.15,3.27v5.38h-2.16V112.08h3.05l5,8.55h.05q-.12-2.23-.12-3.15v-5.41h2.18Z"/><path class="cls-12" d="M443.91,117.68a5.62,5.62,0,0,1-1.61,4.32,6.55,6.55,0,0,1-4.64,1.5h-3.23V112.08H438a6,6,0,0,1,4.34,1.48A5.43,5.43,0,0,1,443.91,117.68Zm-2.52.06q0-3.68-3.25-3.68h-1.29v7.44h1Q441.4,121.5,441.4,117.74Z"/><path class="cls-12" d="M453.27,123.5l-.83-2.72h-4.16l-.83,2.72h-2.61l4-11.47h3l4,11.47Zm-1.41-4.75q-1.15-3.7-1.29-4.18t-.21-.77q-.26,1-1.48,4.95Z"/><path class="cls-12" d="M467.45,123.5h-3.08l-5-8.64h-.07q.15,2.29.15,3.27v5.38h-2.16V112.08h3.05l5,8.55h.05q-.12-2.23-.12-3.15v-5.41h2.18Z"/><text class="cls-13" transform="translate(132 161.74)">NODE</text><text class="cls-13" transform="translate(385.5 161.74)">RELATIONSHIP TYPE </text><rect class="cls-14" x="232.63" y="48.09" width="128.91" height="28.69" rx="3" ry="3"/><text class="cls-15" transform="translate(246 68)">Is_Married_To</text></svg>